<?xml version="1.0" encoding="UTF-8"?>
<svg version="1.1" xmlns="http://www.w3.org/2000/svg" width="4096" height="4096">
<path d="M0 0 C1.1977002 0.12358887 2.39540039 0.24717773 3.62939453 0.37451172 C89.82913577 9.6354554 174.1519798 40.18578854 244 92 C245.04414063 92.76957031 246.08828125 93.53914062 247.1640625 94.33203125 C253.55777232 99.08280045 259.81567519 103.98069713 266 109 C266.87269531 109.69738281 267.74539062 110.39476562 268.64453125 111.11328125 C274.6379947 115.9406345 280.35245869 120.98424823 285.98046875 126.2265625 C288.13387539 128.22880237 290.3420019 130.14943856 292.578125 132.05859375 C297.92258447 136.71685884 302.89938901 141.74980413 307.90014648 146.76977539 C309.5592732 148.43426277 311.22368051 150.09333447 312.88867188 151.75195312 C318.4696494 157.3291788 323.89675259 162.97757118 329 169 C329.92497843 170.04873527 330.85198884 171.09568267 331.78125 172.140625 C344.37346814 186.47168099 355.83014811 201.85889547 366 218 C366.67313232 219.06444336 366.67313232 219.06444336 367.35986328 220.15039062 C409.5610509 287.40627441 429.58313259 364.68252683 432.5625 443.5625 C432.60568359 444.57634766 432.64886719 445.59019531 432.69335938 446.63476562 C433.34713754 463.53960112 433.04491472 480.41920504 432.25 497.3125 C432.20709839 498.23075562 432.16419678 499.14901123 432.11999512 500.09509277 C428.57521723 573.93354476 413.26761427 646.35194675 392 717 C391.74754517 717.8398645 391.49509033 718.679729 391.23498535 719.54504395 C374.95708317 773.55677807 354.78691318 826.40728021 332 878 C331.23792236 879.72814941 331.23792236 879.72814941 330.46044922 881.49121094 C311.68351505 923.95996343 291.71272449 965.94956535 270 1007 C269.39381836 1008.14645996 268.78763672 1009.29291992 268.16308594 1010.47412109 C243.55923776 1056.89562235 217.47577667 1102.48863386 190.0435791 1147.29498291 C189.00317015 1148.99482056 187.96398546 1150.69540733 186.92480469 1152.39599609 C174.69587607 1172.39931952 162.16580945 1192.19905614 149.390625 1211.85742188 C147.94471337 1214.08518178 146.50334184 1216.31583325 145.0625 1218.546875 C130.3774199 1241.25554572 115.26129484 1263.67569357 100 1286 C99.47857422 1286.76344727 98.95714844 1287.52689453 98.41992188 1288.31347656 C90.7031787 1299.60511913 82.86208562 1310.80922691 75 1322 C74.47760742 1322.74427246 73.95521484 1323.48854492 73.41699219 1324.25537109 C66.23961437 1334.47678793 58.96514131 1344.62470997 51.63671875 1354.73828125 C50.01490936 1356.97939733 48.39734868 1359.22351315 46.78125 1361.46875 C39.51264659 1371.56354186 32.16368199 1381.59624712 24.77050781 1391.60009766 C22.99632036 1394.00498771 21.22779351 1396.41393836 19.4609375 1398.82421875 C12.33741542 1408.5356021 5.10514718 1418.15238205 -2.23583984 1427.70019531 C-5.56540899 1432.04070753 -8.87463516 1436.39673453 -12.1875 1440.75 C-28.73563554 1462.47769418 -45.43034116 1484.09777139 -62.52441406 1505.3996582 C-65.38775574 1508.9714508 -68.2275268 1512.55986747 -71.04370117 1516.16894531 C-76.25916919 1522.85254893 -81.60493143 1529.41844063 -87.00805664 1535.95117188 C-90.77189169 1540.50254426 -94.49069898 1545.08528377 -98.16796875 1549.70703125 C-101.28726326 1553.61113759 -104.45825665 1557.4726634 -107.63085938 1561.33349609 C-108.61707136 1562.53390319 -109.60267445 1563.73481063 -110.58789062 1564.93603516 C-117.06091435 1572.8275758 -123.55632098 1580.69598761 -130.16967773 1588.47045898 C-132.96538136 1591.76161683 -135.71500629 1595.08561258 -138.4375 1598.4375 C-142.39572956 1603.30208624 -146.46649061 1608.06062178 -150.56054688 1612.81054688 C-153.57231987 1616.31216351 -156.53051691 1619.84777593 -159.4375 1623.4375 C-164.58278919 1629.76945047 -169.9451771 1635.90711528 -175.30615234 1642.05615234 C-178.06346713 1645.2204274 -180.81322328 1648.39124128 -183.5625 1651.5625 C-184.09883057 1652.18060547 -184.63516113 1652.79871094 -185.18774414 1653.43554688 C-188.3648146 1657.10047489 -191.52335558 1660.78047291 -194.67041016 1664.47119141 C-198.77183604 1669.28016935 -202.90946704 1674.03315858 -207.1875 1678.6875 C-210.35830742 1682.14015696 -213.38035031 1685.65530966 -216.3125 1689.3125 C-220.94537225 1695.05627412 -225.95070296 1700.4033592 -230.99609375 1705.78125 C-233.82371009 1708.79783854 -236.56052023 1711.88154577 -239.26171875 1715.01171875 C-241.47256489 1717.54052928 -243.73596443 1720.01872564 -246 1722.5 C-248.84524228 1725.61907011 -251.6719958 1728.74755391 -254.4375 1731.9375 C-257.82540247 1735.83558073 -261.31590958 1739.63682783 -264.81225586 1743.43725586 C-267.72775509 1746.6076186 -270.62375391 1749.79386189 -273.5 1753 C-277.27813385 1757.20992058 -281.09475104 1761.38344571 -284.92285156 1765.54785156 C-287.72142293 1768.5953577 -290.49476912 1771.66331277 -293.25 1774.75 C-297.87120798 1779.90123901 -302.61180293 1784.93716314 -307.3527832 1789.9777832 C-311.07626999 1793.93924593 -314.77407306 1797.92043909 -318.4375 1801.9375 C-324.84694181 1808.95375287 -331.37474244 1815.85727203 -337.89746094 1822.76806641 C-340.00126325 1825.001341 -342.09914677 1827.24002656 -344.1953125 1829.48046875 C-350.84163088 1836.57791598 -357.5065657 1843.62470987 -364.47265625 1850.41015625 C-366.48696255 1852.47427538 -368.36832079 1854.56192176 -370.24609375 1856.74609375 C-374.98623023 1862.21400358 -380.17125835 1867.21872046 -385.328125 1872.2890625 C-386.08609375 1873.03929688 -386.8440625 1873.78953125 -387.625 1874.5625 C-388.29789063 1875.22378906 -388.97078125 1875.88507813 -389.6640625 1876.56640625 C-391.50463589 1878.48392669 -393.22299239 1880.42211518 -394.94447327 1882.44248962 C-399.78870442 1887.98958969 -405.01451421 1893.15455761 -410.22436523 1898.35375977 C-411.34561448 1899.47636661 -412.46665143 1900.59918551 -413.5874939 1901.72219849 C-416.61205329 1904.75128955 -419.63973455 1907.77724156 -422.66815066 1910.80247617 C-425.84896121 1913.98074097 -429.02731528 1917.16146087 -432.20606995 1920.34178162 C-437.54289152 1925.68041844 -442.88180872 1931.01695269 -448.22192383 1936.35229492 C-454.38075811 1942.50568783 -460.53598186 1948.66267469 -466.68934292 1954.82154042 C-471.98877965 1960.12552665 -477.29017705 1965.42754724 -482.59319454 1970.72795337 C-485.75335858 1973.88656473 -488.91285823 1977.04583271 -492.07058525 1980.20688057 C-495.04046771 1983.17966849 -498.01281794 1986.14996744 -500.98702621 1989.11842728 C-502.07301493 1990.20310268 -503.15817024 1991.28861329 -504.24239159 1992.37505531 C-509.48298413 1997.62538448 -514.74206396 2002.80480475 -520.3935709 2007.61730862 C-522.66671462 2009.57385699 -524.77146025 2011.67620617 -526.875 2013.8125 C-527.71546875 2014.66070313 -528.5559375 2015.50890625 -529.421875 2016.3828125 C-530.27265625 2017.24648437 -531.1234375 2018.11015625 -532 2019 C-537.23221111 2024.31148704 -542.47171554 2029.50147597 -548.1328125 2034.35546875 C-551.23689523 2037.08939935 -554.1077731 2040.04556587 -557 2043 C-561.24957311 2047.29917683 -565.52791676 2051.45540076 -570.14453125 2055.36328125 C-573.16824598 2058.03051593 -575.94692797 2060.93933865 -578.77734375 2063.80859375 C-581.4270144 2066.42101068 -584.21172803 2068.83302621 -587.03515625 2071.25390625 C-589.73378361 2073.65209001 -592.24314575 2076.21611524 -594.75 2078.8125 C-596.69817315 2080.70655723 -598.68714327 2082.48950195 -600.73828125 2084.26953125 C-604.99450318 2087.96678577 -609.09826328 2091.80740708 -613.1875 2095.6875 C-620.40980847 2102.51220678 -627.68044063 2109.27986712 -635 2116 C-636.03908853 2116.95570086 -637.078151 2117.91143007 -638.1171875 2118.8671875 C-643.52816834 2123.84001838 -648.9680233 2128.77899527 -654.4375 2133.6875 C-657.30600445 2136.27615036 -660.15472981 2138.88589108 -663 2141.5 C-668.30124181 2146.36945119 -673.64280042 2151.19225678 -679 2156 C-679.845625 2156.763125 -680.69125 2157.52625 -681.5625 2158.3125 C-685.97017801 2162.29016064 -690.40250119 2166.23337453 -694.8828125 2170.12890625 C-697.39018296 2172.34482959 -699.84901589 2174.61040908 -702.3125 2176.875 C-705.89261212 2180.14529473 -709.52916237 2183.28026617 -713.3125 2186.3125 C-718.36836567 2190.38748445 -723.08187223 2194.75231994 -727.80566406 2199.20019531 C-732.12191437 2203.24239798 -736.60485366 2206.995808 -741.22265625 2210.69140625 C-744.42443058 2213.35279673 -747.46231932 2216.15465085 -750.5 2219 C-755.28311685 2223.47920355 -760.20815468 2227.68451839 -765.3203125 2231.7890625 C-768.13253315 2234.1093495 -770.81797263 2236.53071134 -773.5 2239 C-777.87170463 2243.01974536 -782.37786886 2246.79988195 -786.99609375 2250.53125 C-790.48716179 2253.40037224 -793.90378232 2256.34644461 -797.3125 2259.3125 C-798.26286133 2260.13923218 -798.26286133 2260.13923218 -799.23242188 2260.98266602 C-800.51848455 2262.10178159 -801.80445448 2263.22100376 -803.09033203 2264.34033203 C-811.0217866 2271.23345759 -819.0064369 2278.04402056 -827.16796875 2284.6640625 C-830.4267177 2287.35196853 -833.61887737 2290.11041738 -836.8125 2292.875 C-841.42484251 2296.86236727 -846.11493436 2300.7074778 -850.9375 2304.4375 C-856.69006819 2308.88830343 -862.19564428 2313.57500534 -867.66674805 2318.3659668 C-871.89624777 2322.06380229 -876.20078397 2325.63433711 -880.61328125 2329.11328125 C-885.12552663 2332.68024445 -889.55377592 2336.35133306 -894 2340 C-897.6639525 2343.00333076 -901.33083057 2346.00304481 -905 2349 C-905.59973633 2349.49016602 -906.19947266 2349.98033203 -906.81738281 2350.48535156 C-914.39563398 2356.67533729 -922.00284782 2362.81962867 -929.71679688 2368.83984375 C-934.13066122 2372.29330695 -938.47622452 2375.82483294 -942.8125 2379.375 C-948.98766525 2384.42523205 -955.27747251 2389.30014984 -961.63500977 2394.11791992 C-966.58483853 2397.88233077 -971.43865043 2401.74793963 -976.25 2405.6875 C-981.93995647 2410.34598822 -987.69218574 2414.89061208 -993.5390625 2419.3515625 C-997.63271905 2422.47522653 -1001.68938243 2425.64609006 -1005.75 2428.8125 C-1014.45924225 2435.59551018 -1023.21939401 2442.30974594 -1032 2449 C-1033.66536558 2450.26952994 -1035.33073013 2451.53906124 -1036.99609375 2452.80859375 C-1040.53037537 2455.50245242 -1044.06573072 2458.19489519 -1047.6015625 2460.88671875 C-1051.18312648 2463.6140182 -1054.76099814 2466.34605472 -1058.3359375 2469.08203125 C-1069.02971099 2477.26049207 -1079.79686515 2485.32643319 -1090.65722656 2493.28222656 C-1094.61030107 2496.18070845 -1098.5546161 2499.0910638 -1102.5 2502 C-1104.08201078 2503.16539237 -1105.66404203 2504.33075696 -1107.24609375 2505.49609375 C-1110.42750611 2507.84012017 -1113.60700616 2510.18670882 -1116.78515625 2512.53515625 C-1126.73412753 2519.88335488 -1136.72802243 2527.16518183 -1146.76611328 2534.39111328 C-1149.76191015 2536.54874184 -1152.75473252 2538.71047413 -1155.74731445 2540.87255859 C-1157.24953262 2541.9578286 -1158.75197422 2543.04278941 -1160.25463867 2544.12744141 C-1163.98294395 2546.81873729 -1167.70880052 2549.51329909 -1171.4296875 2552.21484375 C-1181.70419422 2559.66798856 -1192.0677124 2566.98483848 -1202.48095703 2574.24267578 C-1205.77482793 2576.54053222 -1209.06357389 2578.8456608 -1212.35229492 2581.15087891 C-1220.41377369 2586.80039395 -1228.48474828 2592.43627966 -1236.5625 2598.0625 C-1237.85281128 2598.96234619 -1237.85281128 2598.96234619 -1239.16918945 2599.88037109 C-1254.72499408 2610.7061667 -1270.41383402 2621.33896576 -1286.125 2631.9375 C-1286.97973907 2632.51416412 -1287.83447815 2633.09082825 -1288.71511841 2633.68496704 C-1335.59260659 2665.30412456 -1335.59260659 2665.30412456 -1359.3515625 2680.40234375 C-1364.65488562 2683.77252006 -1369.92556297 2687.19067437 -1375.1875 2690.625 C-1384.87015897 2696.93723643 -1394.61445556 2703.15028232 -1404.37744141 2709.33740234 C-1406.8194234 2710.88552163 -1409.25950817 2712.43658595 -1411.69921875 2713.98828125 C-1423.94547739 2721.76428789 -1436.29913624 2729.36247472 -1448.66357422 2736.94873047 C-1451.88521886 2738.92943135 -1455.10171219 2740.91819851 -1458.31640625 2742.91015625 C-1472.19193613 2751.49941089 -1486.17060996 2759.8956417 -1500.21624756 2768.20248413 C-1500.88351868 2768.59714874 -1501.55078979 2768.99181335 -1502.23828125 2769.3984375 C-1503.23169525 2769.98596298 -1503.23169525 2769.98596298 -1504.24517822 2770.58535767 C-1509.41724224 2773.64744175 -1514.56713933 2776.74529875 -1519.71191406 2779.85302734 C-1532.25497779 2787.42684451 -1544.93474338 2794.7439246 -1557.67747498 2801.97428894 C-1561.78415949 2804.3054184 -1565.88253869 2806.65062131 -1569.9765625 2809.00390625 C-1586.54887128 2818.52463247 -1603.2361337 2827.82113654 -1620 2837 C-1620.98693848 2837.54108398 -1621.97387695 2838.08216797 -1622.99072266 2838.63964844 C-1629.31913885 2842.10790642 -1635.65606004 2845.56022356 -1642 2849 C-1643.02158203 2849.55397461 -1644.04316406 2850.10794922 -1645.09570312 2850.67871094 C-1658.54292619 2857.96296198 -1672.03598736 2865.14895387 -1685.609375 2872.1953125 C-1689.86362697 2874.40430933 -1694.10431355 2876.6376597 -1698.34008789 2878.88183594 C-1706.3510603 2883.12436027 -1714.41840048 2887.23280562 -1722.54003906 2891.25927734 C-1728.05530144 2894.00198513 -1733.50564925 2896.84630259 -1738.9375 2899.75 C-1749.86689091 2905.56446367 -1761.04009174 2910.87505528 -1772.20491028 2916.21733093 C-1776.67759871 2918.35954248 -1781.13843362 2920.5250404 -1785.59375 2922.703125 C-1802.06751385 2930.74938208 -1818.65417025 2938.5002719 -1835.37574768 2946.01777649 C-1839.96306597 2948.08019074 -1844.54510032 2950.15386606 -1849.12373352 2952.23548889 C-1899.00996136 2974.91280064 -1949.60871135 2995.96022535 -2001 3015 C-2002.12374023 3015.41942871 -2003.24748047 3015.83885742 -2004.40527344 3016.27099609 C-2013.2499259 3019.57074133 -2022.11638377 3022.80699704 -2031 3026 C-2031.76016418 3026.27350281 -2032.52032837 3026.54700562 -2033.30352783 3026.82879639 C-2127.39183602 3060.63768707 -2224.69377833 3087.64160569 -2451.7487793 3111.26074219 C-2455.45550041 3111.24931712 -2459.16193506 3111.25616869 -2462.86864662 3111.26762009 C-2487.92494207 3111.33318598 -2512.85535407 3110.28672247 -2537.75 3107.25 C-2538.43492523 3107.16763092 -2539.11985046 3107.08526184 -2539.82553101 3107.00039673 C-2618.32624929 3097.4824254 -2697.07825239 3072.70177525 -2761 3025 C-2761.87205078 3024.35321289 -2761.87205078 3024.35321289 -2762.76171875 3023.69335938 C-2774.7214502 3014.78513835 -2786.01987016 3005.08218522 -2797 2995 C-2797.56477051 2994.48566406 -2798.12954102 2993.97132813 -2798.71142578 2993.44140625 C-2807.25551124 2985.65074765 -2815.36784213 2977.69704547 -2823 2969 C-2823.45906738 2968.48566406 -2823.91813477 2967.97132813 -2824.39111328 2967.44140625 C-2892.67528582 2890.89950404 -2921.12458833 2788.70725924 -2920.25 2651.4375 C-2915.10575389 2565.2299892 -2893.105125 2480.57514052 -2844 2358 C-2843.26668457 2356.37215576 -2843.26668457 2356.37215576 -2842.51855469 2354.71142578 C-2839.08188352 2347.10787679 -2835.56576992 2339.54379852 -2832 2332 C-2831.56463928 2331.07837067 -2831.56463928 2331.07837067 -2831.1204834 2330.13812256 C-2823.34478534 2313.69281826 -2815.3197641 2297.45761159 -2806.4296875 2281.57861328 C-2804.98948297 2278.98103127 -2803.58378315 2276.36751839 -2802.1875 2273.74609375 C-2794.63453371 2259.60172977 -2786.41634597 2245.90997815 -2778.00732422 2232.26513672 C-2776.22283946 2229.36247324 -2774.453532 2226.45142284 -2772.69140625 2223.53515625 C-2759.83898511 2202.36287898 -2745.73271597 2181.90433024 -2731 2162 C-2730.37907471 2161.15961182 -2730.37907471 2161.15961182 -2729.74560547 2160.30224609 C-2727.18859026 2156.84906595 -2724.60193462 2153.41941857 -2722 2150 C-2721.40324463 2149.21399414 -2721.40324463 2149.21399414 -2720.79443359 2148.41210938 C-2712.48092793 2137.47448117 -2703.79466441 2126.87838193 -2694.87109375 2116.43359375 C-2694.43998291 2115.89686035 -2694.00887207 2115.36012695 -2693.56469727 2114.80712891 C-2692 2113 -2692 2113 -2689.71459961 2110.90771484 C-2687.16398399 2108.34675352 -2685.47248263 2106.31095488 -2684 2103 C-2684.38716855 2098.2757235 -2685.95090808 2094.2134102 -2687.78048706 2089.89260864 C-2688.71111363 2087.69421824 -2689.57765745 2085.47886675 -2690.43188477 2083.24975586 C-2691.64712992 2080.08749764 -2692.8835878 2076.93482533 -2694.13476562 2073.78662109 C-2697.14892245 2066.13253544 -2699.79007511 2058.34927068 -2702.4375 2050.5625 C-2702.83899261 2049.38914093 -2702.83899261 2049.38914093 -2703.24859619 2048.19207764 C-2733.57797448 1959.47067187 -2754.06958181 1867.46545898 -2779.89312744 1642.17202759 C-2779.96692917 1640.67211591 -2780.04530051 1639.17242457 -2780.12738037 1637.67294312 C-2781.39251669 1614.3253498 -2781.24425803 1590.93661273 -2781.25 1567.5625 C-2781.25058914 1566.46427036 -2781.25117828 1565.36604073 -2781.25178528 1564.2345314 C-2781.26521601 1528.72040714 -2780.68040148 1493.42610454 -2778 1458 C-2777.85374762 1455.99839111 -2777.70774999 1453.99676358 -2777.56201172 1451.99511719 C-2769.96632038 1349.21461374 -2751.8098682 1246.82445851 -2714.75726318 1118.5010376 C-2714.05355826 1116.1768886 -2713.35496664 1113.85128615 -2712.65869141 1111.52490234 C-2696.56520975 1057.83404938 -2676.47008201 1005.32341085 -2654 954 C-2653.56681458 953.00758301 -2653.56681458 953.00758301 -2653.12487793 951.99511719 C-2637.54050631 916.29315193 -2620.96126526 880.79624813 -2602.125 846.6875 C-2599.92673771 842.70384701 -2597.76462179 838.7029546 -2595.625 834.6875 C-2587.75341119 819.91527699 -2579.55648247 805.38574771 -2571 791 C-2570.28571208 789.79595491 -2569.57152276 788.59185133 -2568.85742188 787.38769531 C-2554.8550567 763.79350878 -2540.1970132 740.7173299 -2525 717.875 C-2524.11988251 716.55066956 -2524.11988251 716.55066956 -2523.22198486 715.19958496 C-2510.84759104 696.59540739 -2498.08458039 678.31159605 -2484.75878906 660.37646484 C-2482.9723438 657.96263112 -2481.19923563 655.53952405 -2479.4296875 653.11328125 C-2473.59960897 645.12918165 -2467.6966885 637.24213517 -2461.46826172 629.5637207 C-2457.7130144 624.92726692 -2454.09605003 620.19809198 -2450.5 615.4375 C-2445.48087918 608.81324921 -2440.22223869 602.46155306 -2434.765625 596.1953125 C-2432.28378117 593.34408588 -2429.88031819 590.4368674 -2427.5 587.5 C-2422.6275637 581.50383064 -2417.59202636 575.65461274 -2412.54833984 569.80273438 C-2411.02159309 568.02514087 -2409.50358292 566.24047985 -2407.98828125 564.453125 C-2402.54741231 558.04536535 -2397.01823787 551.74918269 -2391.27148438 545.61303711 C-2388.6538776 542.81498529 -2386.09547437 539.97825294 -2383.58203125 537.0859375 C-2380.14335558 533.13739408 -2376.59435639 529.30671443 -2373 525.5 C-2371.83324929 524.26049578 -2370.66658807 523.0209073 -2369.5 521.78125 C-2368.82525635 521.06638428 -2368.1505127 520.35151855 -2367.45532227 519.61499023 C-2365.57585482 517.61330228 -2363.70525421 515.60458161 -2361.83959961 513.59008789 C-2352.46399517 503.49081861 -2342.82867143 493.67344874 -2333.07250977 483.94213867 C-2330.53739324 481.41244696 -2328.00775363 478.87736467 -2325.47851562 476.34179688 C-2323.84146683 474.70540798 -2322.20410834 473.06932883 -2320.56640625 471.43359375 C-2319.82354874 470.68871201 -2319.08069122 469.94383026 -2318.31532288 469.17637634 C-2314.24093091 465.12002835 -2310.07800955 461.23184287 -2305.71128845 457.49110413 C-2303.35639589 455.43920574 -2301.17819898 453.23706922 -2299 451 C-2295.55223317 447.51566595 -2292.04086066 444.21787184 -2288.31640625 441.03515625 C-2285.83140413 438.85187446 -2283.42133345 436.60084617 -2281.01025391 434.33666992 C-2275.40574741 429.07371854 -2269.7163105 424.05000811 -2263.7109375 419.2421875 C-2260.71094135 416.76092267 -2257.84868089 414.15113463 -2255 411.5 C-2250.44416307 407.26593182 -2245.74727905 403.27067582 -2240.90234375 399.37109375 C-2237.61037255 396.68169063 -2234.39989004 393.90836223 -2231.1875 391.125 C-2226.03314139 386.67402002 -2220.77427091 382.39618488 -2215.39575195 378.21972656 C-2210.83209535 374.67240245 -2206.34729204 371.03660626 -2201.875 367.375 C-2196.48550095 362.97496684 -2191.03366987 358.69879947 -2185.4375 354.5625 C-2182.6647309 352.50834587 -2179.92406745 350.41462368 -2177.1875 348.3125 C-2167.69969964 341.02652093 -2158.16255088 333.86360039 -2148.34277344 327.03076172 C-2145.62514885 325.13807831 -2142.9152042 323.23559852 -2140.21606445 321.31665039 C-2128.90182119 313.27343459 -2117.44832318 305.44620857 -2105.9375 297.6875 C-2104.51960175 296.73130768 -2104.51960175 296.73130768 -2103.07305908 295.75579834 C-2088.89281232 286.20220698 -2074.6447532 276.83088841 -2060 268 C-2058.53167725 267.11030518 -2058.53167725 267.11030518 -2057.03369141 266.20263672 C-2050.78305244 262.41812828 -2044.51521999 258.66335996 -2038.23583984 254.92675781 C-2034.92137647 252.95318418 -2031.61100613 250.97286049 -2028.30078125 248.9921875 C-2013.34448911 240.06273672 -1998.26135194 231.39731218 -1983 223 C-1982.02530762 222.46310547 -1981.05061523 221.92621094 -1980.04638672 221.37304688 C-1963.51525785 212.28934194 -1946.79408981 203.58436538 -1930 195 C-1928.91493164 194.443125 -1927.82986328 193.88625 -1926.71191406 193.3125 C-1909.10679006 184.29590217 -1891.20662542 176.02386545 -1873.15081787 167.96148682 C-1870.99868293 166.99941123 -1868.84803154 166.03408992 -1866.69775391 165.06787109 C-1848.33292786 156.82110772 -1829.88138607 148.89437794 -1811.11328125 141.6015625 C-1808.27387588 140.49822334 -1805.43847052 139.38530273 -1802.60546875 138.265625 C-1754.34943526 119.21465036 -1705.03443281 102.71120385 -1655 89 C-1654.1007782 88.75310425 -1653.2015564 88.5062085 -1652.27508545 88.25183105 C-1554.05488892 61.34504166 -1453.39956706 43.93595134 -1339 36.25 C-1337.56228241 36.16125107 -1337.56228241 36.16125107 -1336.09552002 36.07070923 C-1306.79511476 34.29322615 -1277.53234854 33.79466032 -1248.1875 33.8125 C-1246.87503925 33.81267939 -1246.87503925 33.81267939 -1245.53606415 33.8128624 C-1216.64481458 33.8178444 -1187.84561748 34.24245221 -1159 36 C-1157.24854286 36.10299573 -1155.49707799 36.20585999 -1153.74560547 36.30859375 C-1057.6519055 42.03883164 -962.28036907 57.3480331 -869 81 C-868.10315491 81.22689514 -867.20630981 81.45379028 -866.2822876 81.68756104 C-789.30539011 101.21041671 -713.76646125 127.21764066 -641 159 C-639.80558289 159.52146606 -639.80558289 159.52146606 -638.58703613 160.0534668 C-615.02384212 170.35949714 -591.80468751 181.30800566 -568.734375 192.671875 C-567.58319939 193.23584991 -567.58319939 193.23584991 -566.4087677 193.81121826 C-563.02076954 195.47717356 -559.65816365 197.16643448 -556.34570312 198.97851562 C-555.28802734 199.54763672 -554.23035156 200.11675781 -553.140625 200.703125 C-552.25407227 201.19973633 -551.36751953 201.69634766 -550.45410156 202.20800781 C-547.98619477 203.24925008 -547.98619477 203.24925008 -545.38623047 202.30273438 C-543.26394127 201.14409562 -541.51523884 200.01450251 -539.6796875 198.453125 C-539.07213623 197.94531494 -538.46458496 197.43750488 -537.83862305 196.91430664 C-537.19062744 196.36508545 -536.54263184 195.81586426 -535.875 195.25 C-527.63130449 188.40977187 -519.07988375 182.06450348 -510.41894531 175.76611328 C-508.02848271 174.02079572 -505.64917444 172.26139144 -503.2734375 170.49609375 C-452.44003865 132.73760627 -398.53981963 99.49842395 -342 71 C-340.34991943 70.16686279 -340.34991943 70.16686279 -338.66650391 69.31689453 C-264.10663388 31.91900281 -181.97570215 6.55268487 0 0 Z M-228.57910156 398.58691406 C-232.1825723 400.69027112 -235.81085093 402.74947561 -239.4375 404.8125 C-241.29200617 405.87440731 -243.14633182 406.93663056 -245 408 C-243.62803835 411.1623716 -242.1434878 412.9936218 -239.5 415.1875 C-236.32994443 417.8711752 -233.20665391 420.58984591 -230.125 423.375 C-227.61862352 425.63722413 -225.11233804 427.89935242 -222.59765625 430.15234375 C-204.40796003 446.45526435 -204.40796003 446.45526435 -196.71214294 454.32029724 C-194.99838126 456.00158807 -193.22179559 457.55657779 -191.39477539 459.11352539 C-186.55363733 463.32781117 -182.02757699 467.82860638 -177.49609375 472.37109375 C-176.6139772 473.25225357 -175.73186066 474.13341339 -174.82301331 475.04127502 C-172.49767191 477.3657675 -170.17476382 479.69265907 -167.85266113 482.02038574 C-166.43855176 483.43644678 -165.02250879 484.85054321 -163.60571289 486.26391602 C-160.8581328 489.00528256 -158.11407894 491.75013034 -155.37109375 494.49609375 C-154.53549423 495.32966904 -153.69989471 496.16324432 -152.838974 497.02207947 C-148.54267164 501.3354273 -144.39439932 505.71584108 -140.43678284 510.34303284 C-138.56124425 512.50599426 -136.55411693 514.5072 -134.5 516.5 C-131.19736149 519.76384913 -128.09949352 523.1141419 -125.078125 526.63671875 C-122.28154388 529.81704127 -119.39007216 532.90474452 -116.5 536 C-111.90906634 540.92608535 -107.37749459 545.88212578 -103 551 C-102.12377679 552.02220303 -101.24746655 553.04433146 -100.37109375 554.06640625 C-98.85672185 555.83300549 -97.3428857 557.60005129 -95.83056641 559.3684082 C-92.56438311 563.18536164 -89.27850337 566.98431457 -85.97924805 570.77270508 C-81.04170268 576.44506018 -76.16988077 582.15411788 -71.4375 588 C-69.53289135 590.34413373 -67.61586867 592.67551045 -65.6875 595 C-59.0838659 602.96450295 -52.61893069 610.99184742 -46.35742188 619.22900391 C-44.83999049 621.20876061 -43.3045171 623.17359881 -41.765625 625.13671875 C-33.29813441 635.94006881 -25.07476938 646.90035981 -17 658 C-16.44425293 658.76344727 -15.88850586 659.52689453 -15.31591797 660.31347656 C-12.03917202 664.82032467 -8.77788954 669.33797803 -5.53076172 673.86621094 C-4.55233703 675.23007565 -3.5723465 676.59281929 -2.59033203 677.95410156 C2.80919205 685.44519424 8.0419236 693.03176777 13.12890625 700.73828125 C13.80546013 701.76140915 13.80546013 701.76140915 14.49568176 702.8052063 C16.7809657 706.26268625 19.05793859 709.72520656 21.32250977 713.19628906 C22.16528214 714.47607297 23.00828916 715.75570239 23.8515625 717.03515625 C24.24062271 717.63741531 24.62968292 718.23967438 25.03053284 718.86018372 C25.96846273 720.27590504 26.97776075 721.64390035 28 723 C28.66 723 29.32 723 30 723 C39.37470865 701.24780068 48.01452042 679.29939952 56 657 C56.26059204 656.27385498 56.52118408 655.54770996 56.78967285 654.79956055 C64.79561498 632.45757006 71.90112994 609.93779771 78 587 C78.27650391 585.96099548 78.27650391 585.96099548 78.55859375 584.90100098 C85.88732779 557.228208 92.1911974 528.62897913 94 500 C94.06558105 499.01757324 94.13116211 498.03514648 94.19873047 497.02294922 C96.24453243 464.41276784 96.05316759 424.82871957 73.80078125 398.38671875 C72.28010694 396.68531914 70.73986995 395.00118274 69.1796875 393.3359375 C67.24185062 391.25918759 65.43309666 389.12624859 63.625 386.9375 C59.29148144 381.97636841 54.18478426 378.03184289 49 374 C48.08347656 373.2678125 47.16695312 372.535625 46.22265625 371.78125 C-29.77769533 312.56561255 -129.55933282 347.00528339 -228.57910156 398.58691406 Z M-2504 2442 C-2543.56687082 2516.9630414 -2583.03338377 2604.67627266 -2577.83984375 2720.55078125 C-2571.86877582 2737.96408169 -2560.40356002 2749.67799514 -2544 2758 C-2515.26944507 2771.75720637 -2483.46116439 2774.61392963 -2452 2774.375 C-2450.89482025 2774.37034729 -2449.7896405 2774.36569458 -2448.65097046 2774.36090088 C-2429.93758181 2774.26914469 -2411.5662145 2773.4497014 -2393 2771 C-2392.25286743 2770.90289734 -2391.50573486 2770.80579468 -2390.73596191 2770.70574951 C-2354.56756706 2765.98067788 -2319.12885941 2758.70226047 -2283.75 2749.875 C-2282.56325684 2749.57940186 -2281.37651367 2749.28380371 -2280.15380859 2748.97924805 C-2265.64964334 2745.35169651 -2251.27408952 2741.45025282 -2237 2737 C-2243.39255298 2730.57605532 -2250.09459143 2724.50351895 -2256.9375 2718.5625 C-2261.33196199 2714.74554431 -2265.60016232 2710.79332829 -2269.875 2706.84375 C-2272.17644849 2704.73146679 -2274.51711472 2702.67013981 -2276.875 2700.62109375 C-2281.00148746 2697.0231654 -2285.01289774 2693.31370193 -2289 2689.5625 C-2289.70060547 2688.90507812 -2290.40121094 2688.24765625 -2291.12304688 2687.5703125 C-2295.20474753 2683.72826436 -2299.21387321 2679.83138061 -2303.1388092 2675.82875061 C-2304.94962908 2674.04949296 -2306.8191087 2672.39384766 -2308.74780273 2670.74389648 C-2312.84137721 2667.18305349 -2316.70590554 2663.4390809 -2320.53515625 2659.59765625 C-2321.21750839 2658.91626083 -2321.89986053 2658.23486542 -2322.60289001 2657.53282166 C-2324.03344437 2656.10294259 -2325.46275767 2654.67182089 -2326.89086914 2653.23950195 C-2329.05699074 2651.06802289 -2331.22840174 2648.90193675 -2333.40039062 2646.73632812 C-2334.79979987 2645.33625798 -2336.19889884 2643.93587762 -2337.59765625 2642.53515625 C-2338.23639175 2641.89844498 -2338.87512726 2641.2617337 -2339.53321838 2640.60572815 C-2343.33204491 2636.78740912 -2346.94341689 2632.85655541 -2350.45127869 2628.76890564 C-2352.68615284 2626.21629566 -2355.07234726 2623.8705315 -2357.5 2621.5 C-2361.15961131 2617.88927427 -2364.65439187 2614.20318826 -2367.9921875 2610.29296875 C-2370.7603822 2607.13162577 -2373.63220658 2604.07088009 -2376.5 2601 C-2381.09097912 2596.07395995 -2385.62250773 2591.11787152 -2390 2586 C-2390.87622321 2584.97779697 -2391.75253345 2583.95566854 -2392.62890625 2582.93359375 C-2394.14702214 2581.16266922 -2395.66454492 2579.3912515 -2397.18041992 2577.6184082 C-2399.83104297 2574.52036749 -2402.49051534 2571.43087083 -2405.171875 2568.359375 C-2412.69377565 2559.7415378 -2420.03154923 2550.98982186 -2427.26367188 2542.12744141 C-2428.9803268 2540.02410465 -2430.70092147 2537.92403891 -2432.421875 2535.82421875 C-2438.17925626 2528.78499594 -2443.83947606 2521.69052979 -2449.3515625 2514.45703125 C-2451.3049682 2511.89628304 -2453.28351425 2509.35669176 -2455.2734375 2506.82421875 C-2462.88115114 2497.13452818 -2470.22142093 2487.29453075 -2477.37792969 2477.26757812 C-2480.66947213 2472.66615636 -2483.99434829 2468.08870715 -2487.31201172 2463.50610352 C-2489.88381031 2459.94851444 -2492.44210375 2456.38279937 -2494.96875 2452.79296875 C-2495.65964722 2451.81408691 -2495.65964722 2451.81408691 -2496.36450195 2450.81542969 C-2497.2235508 2449.59605274 -2498.07907093 2448.37417933 -2498.93041992 2447.14941406 C-2501.01342218 2444.08329863 -2501.01342218 2444.08329863 -2504 2442 Z " fill="#000000" transform="translate(3294,481)"/>
<path d="M0 0 C0.33 0 0.66 0 1 0 C3.1583527 23.93219537 4.84332488 47.85043077 5.90429688 71.85687256 C5.99275856 73.83783892 6.08600965 75.81858986 6.1796875 77.79931641 C11.00517078 182.62432362 3.40401558 288.69493969 -21 429 C-21.18479919 429.94697754 -21.36959839 430.89395508 -21.55999756 431.86962891 C-38.61937715 518.88391405 -63.58785374 604.62462988 -136 781 C-136.5038623 782.07830078 -137.00772461 783.15660156 -137.52685547 784.26757812 C-150.69844572 812.3389298 -164.32904553 840.41009902 -179.5546875 867.43017578 C-181.17421351 870.30975869 -182.77502751 873.1993529 -184.375 876.08984375 C-192.01873181 889.86627582 -199.88546728 903.49576729 -208 917 C-208.56187012 917.93553711 -209.12374023 918.87107422 -209.70263672 919.83496094 C-229.86572306 953.33582935 -251.2262074 986.20902629 -274 1018 C-274.53061035 1018.74233887 -275.0612207 1019.48467773 -275.60791016 1020.24951172 C-279.37934061 1025.51867107 -283.18200766 1030.76450888 -287 1036 C-287.56187012 1036.7719873 -288.12374023 1037.54397461 -288.70263672 1038.33935547 C-299.92950561 1053.74660996 -311.52634737 1068.82906019 -323.59350586 1083.58789062 C-326.31788692 1086.92053883 -329.00829041 1090.26899579 -331.625 1093.6875 C-334.90818806 1097.95645917 -338.39403193 1102.04141328 -341.88769531 1106.13793945 C-344.61188837 1109.33835423 -347.27526096 1112.57173749 -349.875 1115.875 C-357.75261119 1125.80272721 -366.24361738 1135.24333347 -374.80078125 1144.5859375 C-377.32215166 1147.35362296 -379.78419256 1150.16835146 -382.2421875 1152.9921875 C-388.56647795 1160.2159326 -395.06177312 1167.28800449 -401.59228516 1174.32519531 C-403.24513087 1176.10628175 -404.89698483 1177.88817251 -406.54328918 1179.67530823 C-417.50820142 1191.57622167 -428.89234728 1203.04839353 -440.34545898 1214.47583008 C-442.94284403 1217.06745801 -445.5356275 1219.66363643 -448.12716579 1222.26110935 C-450.15783644 1224.29541447 -452.19090818 1226.32730659 -454.22468758 1228.35850334 C-455.63945033 1229.77229319 -457.05223285 1231.18806376 -458.46495056 1232.60389709 C-462.98034542 1237.1029682 -467.5453521 1241.47240167 -472.39295959 1245.61314392 C-474.36464472 1247.31468391 -476.19153399 1249.12694592 -478 1251 C-481.10713922 1254.14920881 -484.32490304 1257.07976967 -487.6796875 1259.9609375 C-490.04047336 1262.03556749 -492.3395235 1264.16495872 -494.63623047 1266.30981445 C-500.01873495 1271.33562806 -505.50769262 1276.11067346 -511.25390625 1280.72265625 C-514.26320459 1283.21827635 -517.13916806 1285.83787519 -520 1288.5 C-524.57927575 1292.75533276 -529.29286299 1296.77322923 -534.1640625 1300.6953125 C-537.25587906 1303.2079458 -540.28430911 1305.7865464 -543.3125 1308.375 C-548.30296752 1312.62570062 -553.39676625 1316.71847626 -558.57104492 1320.74267578 C-562.31184512 1323.65690705 -566.00037933 1326.62543237 -569.6628418 1329.63745117 C-578.76997661 1337.12191371 -588.15204208 1344.20099069 -597.61621094 1351.22607422 C-600.47978321 1353.35703654 -603.32921564 1355.50629098 -606.17797852 1357.65698242 C-627.60182142 1373.81015701 -649.55969215 1389.29109571 -672 1404 C-672.84498047 1404.55510254 -673.68996094 1405.11020508 -674.56054688 1405.68212891 C-693.2464791 1417.94925433 -712.06292239 1429.93047404 -731.26904297 1441.36669922 C-734.16646579 1443.09955803 -737.05461827 1444.84714229 -739.94140625 1446.59765625 C-762.24047179 1460.09950388 -785.0099528 1472.71683628 -808 1485 C-808.84981445 1485.45455566 -809.69962891 1485.90911133 -810.57519531 1486.37744141 C-842.46819185 1503.37247655 -874.87219189 1519.54944102 -908 1534 C-908.75224854 1534.32875122 -909.50449707 1534.65750244 -910.27954102 1534.99621582 C-960.53173453 1556.93434301 -1011.814248 1576.18096232 -1064 1593 C-1064.74540039 1593.24065186 -1065.49080078 1593.48130371 -1066.25878906 1593.72924805 C-1168.62480767 1626.71458975 -1274.78020611 1647.4998063 -1468 1664 C-1468.80914856 1664.03867188 -1469.61829712 1664.07734375 -1470.45196533 1664.1171875 C-1480.29847465 1664.58001067 -1490.143405 1664.86961457 -1500 1665 C-1501.21423645 1665.01643555 -1501.21423645 1665.01643555 -1502.45300293 1665.03320312 C-1609.36537387 1666.39610161 -1716.88947129 1656.17299543 -1848 1629 C-1848 1628.34 -1848 1627.68 -1848 1627 C-1847.00895264 1626.50709473 -1846.01790527 1626.01418945 -1844.99682617 1625.50634766 C-1820.2693575 1613.23816912 -1820.2693575 1613.23816912 -1795.78955078 1600.48681641 C-1792.24904762 1598.5997462 -1788.70077579 1596.72757599 -1785.15234375 1594.85546875 C-1763.46716875 1583.41079235 -1741.81318057 1571.92754127 -1720.49902344 1559.80126953 C-1714.06079577 1556.1438364 -1707.57719259 1552.58160255 -1701.0625 1549.0625 C-1692.16451344 1544.24855962 -1683.41634715 1539.20588102 -1674.6953125 1534.0793457 C-1668.69330655 1530.5555148 -1662.66042666 1527.10496327 -1656.5625 1523.75 C-1648.80582495 1519.47589625 -1641.16089409 1515.03572067 -1633.54736328 1510.51220703 C-1630.63666383 1508.7843105 -1627.72271402 1507.06196459 -1624.80859375 1505.33984375 C-1594.67691187 1487.52368873 -1564.67767342 1469.49985116 -1535.02490234 1450.89550781 C-1531.99442809 1448.99650845 -1528.96070105 1447.10282288 -1525.92578125 1445.2109375 C-1513.52072337 1437.47677182 -1501.15625473 1429.68254795 -1488.83789062 1421.81103516 C-1485.89986922 1419.9361003 -1482.95797378 1418.06735412 -1480.015625 1416.19921875 C-1468.3948865 1408.80873162 -1456.86841614 1401.29401402 -1445.42749023 1393.62817383 C-1435.24994092 1386.81209046 -1425.0180102 1380.07989002 -1414.78323364 1373.35012817 C-1398.09080473 1362.37218976 -1381.46069788 1351.32300548 -1365 1340 C-1363.58620912 1339.03215519 -1362.17216497 1338.0646802 -1360.7578125 1337.09765625 C-1351.1402989 1330.51411871 -1341.57878702 1323.8496191 -1332.015625 1317.1875 C-1328.02982791 1314.4111683 -1324.04013989 1311.6405791 -1320.046875 1308.875 C-1310.48813402 1302.25027137 -1300.97566511 1295.57756235 -1291.57617188 1288.72851562 C-1286.18455136 1284.8148506 -1280.70403768 1281.04746193 -1275.1875 1277.3125 C-1268.69930714 1272.91533816 -1262.44995335 1268.34854297 -1256.28125 1263.51171875 C-1252.56759594 1260.63181196 -1248.72552829 1257.9426433 -1244.875 1255.25 C-1236.2765021 1249.23241138 -1227.8299653 1243.02204548 -1219.3984375 1236.7734375 C-1217.04093643 1235.03026895 -1214.677859 1233.29498702 -1212.3125 1231.5625 C-1203.07990242 1224.79552414 -1193.93513583 1217.92547687 -1184.84521484 1210.96801758 C-1179.0246562 1206.52057723 -1173.15842744 1202.14240004 -1167.25 1197.8125 C-1159.11387321 1191.84785653 -1151.0830008 1185.75707839 -1143.08837891 1179.60449219 C-1140.99330363 1177.99485521 -1138.89395574 1176.39097379 -1136.79296875 1174.7890625 C-1128.64748963 1168.57787595 -1120.53766709 1162.32326728 -1112.45825195 1156.02636719 C-1108.06796103 1152.60526182 -1103.66702671 1149.19900066 -1099.25 1145.8125 C-1093.04787107 1141.05001204 -1086.89873801 1136.22260538 -1080.75732422 1131.38232422 C-1079.02979098 1130.02343381 -1077.29874535 1128.66916291 -1075.56640625 1127.31640625 C-1068.60791332 1121.877425 -1061.72859435 1116.35156886 -1054.88891602 1110.76391602 C-1050.83062998 1107.45838053 -1046.72852001 1104.23116859 -1042.5625 1101.0625 C-1036.71104615 1096.60149063 -1031.0390535 1091.94623416 -1025.3762207 1087.24902344 C-1020.88696708 1083.53231554 -1016.35150007 1079.88907048 -1011.75 1076.3125 C-1006.59604337 1072.30329595 -1001.58192473 1068.15783423 -996.61669922 1063.91772461 C-992.62383034 1060.51161045 -988.55929587 1057.21213022 -984.44921875 1053.94921875 C-977.13372748 1048.12716111 -969.96076703 1042.14000886 -962.83666992 1036.08666992 C-958.5390876 1032.44056418 -954.18351093 1028.8702996 -949.8125 1025.3125 C-946.11826545 1022.27501826 -942.47524894 1019.17927954 -938.83154297 1016.08154297 C-935.4614901 1013.22153062 -932.05973692 1010.40744267 -928.625 1007.625 C-923.5055232 1003.46076085 -918.53049722 999.14373063 -913.55834961 994.80615234 C-909.82001389 991.55281311 -906.04082601 988.3675424 -902.1875 985.25 C-897.82917704 981.72214035 -893.67042013 978.02264204 -889.52734375 974.24609375 C-886.93037607 971.93812402 -884.26595987 969.74444137 -881.5625 967.5625 C-876.78571491 963.69941783 -872.26053118 959.62088565 -867.7421875 955.4609375 C-865.09984117 953.08960105 -862.39305833 950.84747003 -859.625 948.625 C-854.82779065 944.75716454 -850.32795793 940.64890505 -845.83422852 936.43969727 C-842.50880245 933.34249154 -839.11298325 930.40392933 -835.5625 927.5625 C-829.85277909 922.97969769 -824.55432427 918.00950575 -819.21875 913.00390625 C-816.20216146 910.17628991 -813.11845423 907.43947977 -809.98828125 904.73828125 C-807.45947072 902.52743511 -804.98127436 900.26403557 -802.5 898 C-799.38092989 895.15475772 -796.25244609 892.3280042 -793.0625 889.5625 C-789.11254739 886.13163767 -785.268129 882.58869729 -781.41992188 879.04492188 C-778.6654424 876.51274592 -775.89266213 874.00972265 -773.0625 871.5625 C-768.92855515 867.97860187 -764.9258161 864.25774393 -760.91381836 860.53881836 C-757.67537732 857.53919077 -754.4170816 854.56592623 -751.125 851.625 C-746.19085353 847.20516196 -741.35994453 842.67887719 -736.52563477 838.15063477 C-733.06951341 834.91768583 -729.59426077 831.71309266 -726.0625 828.5625 C-720.34264436 823.44872178 -714.76810593 818.18210374 -709.1796875 812.92578125 C-706.42145363 810.33180465 -703.65611511 807.74582839 -700.8828125 805.16796875 C-700.21983154 804.55139404 -699.55685059 803.93481934 -698.8737793 803.29956055 C-697.6287803 802.14246969 -696.38291969 800.98630486 -695.13598633 799.83129883 C-691.55745202 796.5027227 -688.07259838 793.10049535 -684.64746094 789.61401367 C-682.93035056 787.93176461 -681.14518696 786.36735335 -679.3125 784.8125 C-675.18057176 781.2582394 -671.36568985 777.42681255 -667.5637207 773.52661133 C-664.84840018 770.76337068 -662.06101736 768.15387432 -659.125 765.625 C-654.87380425 761.94763486 -650.93427691 758.01111825 -647 754 C-645.6692679 752.64327703 -644.3359398 751.28909535 -643 749.9375 C-642.4225 749.34839844 -641.845 748.75929688 -641.25 748.15234375 C-639.30289398 746.28974754 -637.31376216 744.53162156 -635.2734375 742.7734375 C-630.85899512 738.93348433 -626.73692715 734.84674877 -622.625 730.6875 C-621.85623535 729.91494873 -621.0874707 729.14239746 -620.29541016 728.34643555 C-617.86114235 725.90005818 -615.43015894 723.4504586 -613 721 C-609.79463822 717.76786312 -606.58585927 714.53917465 -603.375 711.3125 C-602.65393066 710.58313232 -601.93286133 709.85376465 -601.18994141 709.10229492 C-597.92111956 705.81792171 -594.62623133 702.62832212 -591.11157227 699.60717773 C-586.11760978 695.30128485 -581.49522363 690.63851611 -576.83984375 685.97265625 C-575.8817014 685.01518975 -574.92341084 684.05787155 -573.96498108 683.10069275 C-571.96908713 681.10626253 -569.97498548 679.11006259 -567.98217773 677.11254883 C-565.44858137 674.57325601 -562.91052017 672.03848097 -560.37108517 669.50502872 C-558.39509297 667.53267816 -556.42152321 665.55791737 -554.44864082 663.58245659 C-553.06589401 662.19873372 -551.6811607 660.81699686 -550.29637146 659.43531799 C-545.93822078 655.06109174 -541.74460896 650.62438715 -537.7202301 645.94261169 C-534.53614734 642.34690877 -531.10171087 639.00036588 -527.6875 635.625 C-526.91494873 634.85623535 -526.14239746 634.0874707 -525.34643555 633.29541016 C-522.07623964 630.0414017 -518.8000651 626.79343734 -515.52441406 623.54492188 C-513.11834715 621.15704648 -510.71536962 618.76609207 -508.3125 616.375 C-507.21844849 615.293396 -507.21844849 615.293396 -506.10229492 614.18994141 C-502.06577849 610.17253771 -498.22947514 606.05088801 -494.51196289 601.73681641 C-492.77319228 599.73946228 -490.95334223 597.85360464 -489.0625 596 C-488.39476563 595.34 -487.72703125 594.68 -487.0390625 594 C-485.6796875 592.66666667 -484.3203125 591.33333333 -482.9609375 590 C-479.00961134 586.09444209 -475.27776101 582.08410122 -471.65234375 577.875 C-469.22504037 575.12061319 -466.62760988 572.56145174 -464 570 C-460.05509103 566.10882141 -456.2999361 562.14810009 -452.70703125 557.92578125 C-450.08162367 554.963937 -447.24599217 552.22372375 -444.40625 549.46875 C-441.78389151 546.77827831 -439.3401503 543.96902677 -436.87841797 541.13232422 C-433.77626408 537.61085137 -430.54237821 534.2164743 -427.3125 530.8125 C-418.16704677 521.13424034 -409.141497 511.35014515 -400.15209961 501.52709961 C-397.7389687 498.89139204 -395.31935678 496.26196995 -392.890625 493.640625 C-388.16047929 488.53488459 -383.45830223 483.42234964 -378.90625 478.15625 C-376.31714909 475.22759487 -373.65800659 472.36606337 -371 469.5 C-367.17203225 465.37129272 -363.39141307 461.21513675 -359.70703125 456.95703125 C-357.66366569 454.6144085 -355.58319141 452.30726578 -353.5 450 C-348.68985199 444.66437363 -343.94019763 439.28413119 -339.28515625 433.8125 C-334.38425473 428.05734968 -329.45814986 422.35096144 -324.3125 416.8125 C-320.08923155 412.26546013 -316.13671276 407.54864313 -312.24609375 402.71484375 C-309.9116941 399.89326505 -307.48009402 397.19409288 -305 394.5 C-300.88621091 390.0301488 -297.02912703 385.40955107 -293.21484375 380.68359375 C-291.04367173 378.05291443 -288.79758643 375.52057576 -286.5 373 C-282.67829137 368.80270966 -279.08525811 364.46289769 -275.515625 360.05078125 C-272.57074845 356.47943252 -269.54276802 352.98791208 -266.5 349.5 C-261.98505004 344.32085766 -257.56761613 339.08163603 -253.2421875 333.7421875 C-250.69746142 330.62999637 -248.10374084 327.56280258 -245.5 324.5 C-240.59437326 318.72467766 -235.78103085 312.87902528 -231 307 C-226.87796696 301.95070433 -222.74986954 296.90663604 -218.6015625 291.87890625 C-213.06177514 285.16457672 -207.52472271 278.45218841 -202.109375 271.63671875 C-199.88134743 268.85168429 -197.630539 266.08617798 -195.37670898 263.32202148 C-189.27972905 255.84332966 -183.26827978 248.30501169 -177.32958984 240.70019531 C-175.56902866 238.44890113 -173.80063752 236.20381819 -172.0324707 233.95849609 C-165.58798095 225.7721575 -159.19422066 217.54659067 -152.80273438 209.31884766 C-151.02139147 207.02751573 -149.23766377 204.73806227 -147.453125 202.44921875 C-140.16679741 193.10100903 -132.93034731 183.7167931 -125.74658203 174.28955078 C-123.87436155 171.8353037 -121.99790818 169.38432924 -120.12109375 166.93359375 C-111.87390413 156.15333875 -103.74280349 145.29688009 -95.72216797 134.34716797 C-93.97709387 131.96878089 -92.22592383 129.59500866 -90.47265625 127.22265625 C-83.12108348 117.27414318 -75.83975516 107.27798101 -68.61328125 97.23828125 C-66.98510744 94.97933793 -65.35262375 92.72357339 -63.71875 90.46875 C-56.8991641 81.05431571 -50.15295593 71.59178191 -43.46630859 62.08251953 C-42.02888937 60.04103003 -40.5875005 58.00241328 -39.14453125 55.96484375 C-27.58372425 39.63574326 -16.14391325 23.22117854 -4.89672852 6.67431641 C-4.39584717 5.93874512 -3.89496582 5.20317383 -3.37890625 4.4453125 C-2.9413501 3.80094238 -2.50379395 3.15657227 -2.05297852 2.49267578 C-1 1 -1 1 0 0 Z " fill="#000000" transform="translate(3574,1919)"/>
</svg>
